<svg xmlns="http://www.w3.org/2000/svg" viewBox="0 0 1280 320" width="1280" height="320" role="img" aria-label="Encrypt and Decrypt Data Utility Tool web release 1.4 Perso-Arabic Script bundle banner">
  <defs>
    <linearGradient id="bg" x1="0%" y1="0%" x2="100%" y2="100%">
      <stop offset="0%" stop-color="#00565a"/>
      <stop offset="58%" stop-color="#008b8f"/>
      <stop offset="100%" stop-color="#006a6e"/>
    </linearGradient>
    <pattern id="grid" width="40" height="40" patternUnits="userSpaceOnUse">
      <path d="M 40 0 L 0 0 0 40" fill="none" stroke="rgba(255,255,255,0.04)" stroke-width="1"/>
    </pattern>
    <filter id="softShadow" x="-20%" y="-20%" width="140%" height="140%">
      <feDropShadow dx="0" dy="14" stdDeviation="18" flood-color="rgba(0,0,0,0.22)"/>
    </filter>
  </defs>

  <rect width="1280" height="320" fill="url(#bg)"/>
  <rect width="1280" height="320" fill="url(#grid)"/>
  <circle cx="1180" cy="160" r="220" fill="none" stroke="rgba(255,255,255,0.05)" stroke-width="2"/>
  <circle cx="1180" cy="160" r="155" fill="none" stroke="rgba(255,255,255,0.04)" stroke-width="1.5"/>
  <circle cx="1180" cy="160" r="90" fill="none" stroke="rgba(255,255,255,0.04)" stroke-width="1"/>
  <circle cx="30" cy="300" r="140" fill="none" stroke="rgba(255,255,255,0.03)" stroke-width="1.5"/>

  <rect x="60" y="78" width="162" height="162" rx="30" fill="rgba(255,255,255,0.10)" stroke="rgba(255,255,255,0.18)" stroke-width="1.5" filter="url(#softShadow)"/>
  <rect x="94" y="130" width="94" height="78" rx="18" fill="rgba(255,255,255,0.92)"/>
  <path d="M117 127c0-22 15-38 38-38s38 16 38 38v16h-18v-16c0-12-8-20-20-20s-20 8-20 20v16h-18z" fill="none" stroke="rgba(255,255,255,0.92)" stroke-width="14" stroke-linecap="round"/>
  <circle cx="141" cy="169" r="10" fill="#006a6e"/>
  <rect x="136" y="176" width="10" height="18" rx="5" fill="#006a6e"/>

  <text x="254" y="100" font-family="Georgia,'Times New Roman',serif" font-size="40" font-weight="bold" fill="white" opacity="0.97">Encrypt &amp; Decrypt</text>
  <text x="254" y="144" font-family="Georgia,'Times New Roman',serif" font-size="40" font-weight="bold" fill="white" opacity="0.97">Data Utility Tool</text>
  <line x1="254" y1="164" x2="1040" y2="164" stroke="rgba(255,255,255,0.2)" stroke-width="1"/>
  <text x="254" y="187" font-family="'Courier New',monospace" font-size="14" fill="rgba(255,255,255,0.72)" letter-spacing="1.2">Web Release v1.4  ·  Perso-Arabic Script Bundle  ·  Fully Offline</text>

  <!-- Row 1: existing languages -->
  <rect x="254" y="202" width="110" height="30" rx="15" fill="rgba(255,255,255,0.22)" stroke="rgba(255,255,255,0.55)" stroke-width="1.5"/>
  <text x="309" y="222" font-family="'Courier New',monospace" font-size="11.5" font-weight="bold" fill="white" text-anchor="middle">✓ English</text>

  <rect x="374" y="202" width="114" height="30" rx="15" fill="rgba(255,255,255,0.22)" stroke="rgba(255,255,255,0.55)" stroke-width="1.5"/>
  <text x="431" y="222" font-family="'Courier New',monospace" font-size="11.5" font-weight="bold" fill="white" text-anchor="middle">✓ Deutsch</text>

  <rect x="498" y="202" width="128" height="30" rx="15" fill="rgba(255,255,255,0.22)" stroke="rgba(255,255,255,0.55)" stroke-width="1.5"/>
  <text x="562" y="222" font-family="'Noto Sans CJK SC','Microsoft YaHei','Courier New',monospace" font-size="11.5" font-weight="bold" fill="white" text-anchor="middle">✓ 中文（简体）</text>

  <rect x="636" y="202" width="128" height="30" rx="15" fill="rgba(255,255,255,0.22)" stroke="rgba(255,255,255,0.55)" stroke-width="1.5"/>
  <text x="700" y="222" font-family="'Noto Sans CJK TC','Microsoft JhengHei','Courier New',monospace" font-size="11.5" font-weight="bold" fill="white" text-anchor="middle">✓ 中文（繁體）</text>

  <rect x="774" y="202" width="92" height="30" rx="15" fill="rgba(255,255,255,0.22)" stroke="rgba(255,255,255,0.55)" stroke-width="1.5"/>
  <text x="820" y="222" font-family="'Noto Sans JP','Yu Gothic','Courier New',monospace" font-size="11.5" font-weight="bold" fill="white" text-anchor="middle">✓ 日本語</text>

  <rect x="876" y="202" width="94" height="30" rx="15" fill="rgba(255,255,255,0.22)" stroke="rgba(255,255,255,0.55)" stroke-width="1.5"/>
  <text x="923" y="222" font-family="'Noto Sans KR','Malgun Gothic','Courier New',monospace" font-size="11.5" font-weight="bold" fill="white" text-anchor="middle">✓ 한국어</text>

  <!-- Row 2: Latin + new RTL languages -->
  <rect x="254" y="242" width="106" height="30" rx="15" fill="rgba(255,255,255,0.22)" stroke="rgba(255,255,255,0.55)" stroke-width="1.5"/>
  <text x="307" y="262" font-family="'Courier New',monospace" font-size="11.5" font-weight="bold" fill="white" text-anchor="middle">✓ Français</text>

  <rect x="370" y="242" width="102" height="30" rx="15" fill="rgba(255,255,255,0.22)" stroke="rgba(255,255,255,0.55)" stroke-width="1.5"/>
  <text x="421" y="262" font-family="'Courier New',monospace" font-size="11.5" font-weight="bold" fill="white" text-anchor="middle">✓ Español</text>

  <rect x="482" y="242" width="98" height="30" rx="15" fill="rgba(255,255,255,0.22)" stroke="rgba(255,255,255,0.55)" stroke-width="1.5"/>
  <text x="531" y="262" font-family="'Courier New',monospace" font-size="11.5" font-weight="bold" fill="white" text-anchor="middle">✓ Italiano</text>

  <rect x="590" y="242" width="114" height="30" rx="15" fill="rgba(255,255,255,0.22)" stroke="rgba(255,255,255,0.55)" stroke-width="1.5"/>
  <text x="647" y="262" font-family="'Courier New',monospace" font-size="11.5" font-weight="bold" fill="white" text-anchor="middle">✓ Português</text>

  <!-- New this release: Arabic and Farsi — highlighted with brighter stroke -->
  <rect x="714" y="242" width="104" height="30" rx="15" fill="rgba(255,255,255,0.28)" stroke="rgba(255,255,255,0.80)" stroke-width="2"/>
  <text x="766" y="262" font-family="'Noto Sans Arabic','Arabic Typesetting','Geeza Pro','Tahoma',sans-serif" font-size="12" font-weight="bold" fill="white" text-anchor="middle">✓ العربية</text>

  <rect x="828" y="242" width="94" height="30" rx="15" fill="rgba(255,255,255,0.28)" stroke="rgba(255,255,255,0.80)" stroke-width="2"/>
  <text x="875" y="262" font-family="'Noto Sans Arabic','Arabic Typesetting','Geeza Pro','Tahoma',sans-serif" font-size="12" font-weight="bold" fill="white" text-anchor="middle">✓ فارسی</text>

  <!-- Planned -->
  <rect x="932" y="242" width="100" height="30" rx="15" fill="rgba(255,255,255,0.07)" stroke="rgba(255,255,255,0.18)" stroke-width="1"/>
  <text x="982" y="262" font-family="'Courier New',monospace" font-size="11" fill="rgba(255,255,255,0.45)" text-anchor="middle">Русский</text>

  <rect x="1042" y="242" width="118" height="30" rx="15" fill="rgba(255,255,255,0.07)" stroke="rgba(255,255,255,0.18)" stroke-width="1"/>
  <text x="1101" y="262" font-family="'Courier New',monospace" font-size="11" fill="rgba(255,255,255,0.45)" text-anchor="middle">Українська</text>

  <rect x="1060" y="14" width="204" height="30" rx="7" fill="rgba(0,0,0,0.28)" stroke="rgba(255,255,255,0.2)" stroke-width="1"/>
  <text x="1162" y="34" font-family="'Courier New',monospace" font-size="13" fill="rgba(255,255,255,0.85)" text-anchor="middle">GPL v3 · Open Source</text>
  <text x="1220" y="308" font-family="Georgia,serif" font-size="13" fill="rgba(255,255,255,0.4)" text-anchor="end">© 2026 Amanda Hernow</text>
</svg>
